<mxfile host="65bd71144e">
    <diagram id="zaUrqFMK4C-lqB4-PGLN" name="Page-1">
        <mxGraphModel dx="944" dy="985" grid="1" gridSize="10" guides="1" tooltips="1" connect="1" arrows="1" fold="1" page="0" pageScale="1" pageWidth="850" pageHeight="1100" background="#ffffff" math="0" shadow="0">
            <root>
                <mxCell id="0"/>
                <mxCell id="1" parent="0"/>
                <mxCell id="56" value="BinaryHeap(PriorityQueue) pop&lt;br&gt;&lt;font style=&quot;font-size: 14px;&quot; color=&quot;#808080&quot;&gt;二叉树形式比较直观，实际形式是数组&lt;br&gt;这里展示的是最小堆&lt;br&gt;&lt;/font&gt;" style="text;html=1;strokeColor=#82b366;fillColor=#d5e8d4;align=center;verticalAlign=middle;whiteSpace=wrap;rounded=0;fontSize=15;fontColor=#000000;" parent="1" vertex="1">
                    <mxGeometry x="290" y="-20" width="262" height="70" as="geometry"/>
                </mxCell>
                <mxCell id="57" value="" style="line;strokeWidth=1;html=1;fontColor=#000000;dashed=1;fillColor=#FFFFFF;strokeColor=#FFFFFF;" parent="1" vertex="1">
                    <mxGeometry x="5" y="-50" width="835" height="10" as="geometry"/>
                </mxCell>
                <mxCell id="58" value="" style="line;strokeWidth=1;html=1;fontColor=#000000;dashed=1;strokeColor=#000000;" parent="1" vertex="1">
                    <mxGeometry x="2.5" y="60" width="835" height="10" as="geometry"/>
                </mxCell>
                <mxCell id="59" value="初始状态" style="text;html=1;strokeColor=#6c8ebf;fillColor=#dae8fc;align=center;verticalAlign=middle;whiteSpace=wrap;rounded=0;strokeWidth=1;fontColor=#000000;fontSize=15;" parent="1" vertex="1">
                    <mxGeometry x="5" y="90" width="75" height="30" as="geometry"/>
                </mxCell>
                <mxCell id="73" value="数组中第 i 个元素的：&lt;br&gt;左儿子：2i+1&lt;br&gt;右儿子：2i+2&lt;br&gt;父亲：(i - 1) // 2" style="text;html=1;strokeColor=#82b366;fillColor=#d5e8d4;align=center;verticalAlign=middle;whiteSpace=wrap;rounded=0;strokeWidth=1;fontSize=15;fontColor=#000000;" parent="1" vertex="1">
                    <mxGeometry x="650" y="90" width="160" height="80" as="geometry"/>
                </mxCell>
                <mxCell id="74" value="" style="line;strokeWidth=1;html=1;fontColor=#000000;dashed=1;strokeColor=#000000;" parent="1" vertex="1">
                    <mxGeometry x="5" y="330" width="835" height="10" as="geometry"/>
                </mxCell>
                <mxCell id="75" value="step1:首先返回最小值，并将最后一个节点设置为新的根节点" style="text;html=1;strokeColor=#6c8ebf;fillColor=#dae8fc;align=center;verticalAlign=middle;whiteSpace=wrap;rounded=0;strokeWidth=1;fontColor=#000000;fontSize=15;" parent="1" vertex="1">
                    <mxGeometry x="5" y="360" width="415" height="30" as="geometry"/>
                </mxCell>
                <mxCell id="76" value="" style="endArrow=none;html=1;fontSize=15;strokeColor=#000000;fontColor=#000000;" parent="1" edge="1">
                    <mxGeometry width="50" height="50" relative="1" as="geometry">
                        <mxPoint x="105" y="485" as="sourcePoint"/>
                        <mxPoint x="155" y="525" as="targetPoint"/>
                    </mxGeometry>
                </mxCell>
                <mxCell id="77" value="" style="endArrow=none;html=1;fontSize=15;strokeColor=#000000;fontColor=#000000;" parent="1" edge="1">
                    <mxGeometry width="50" height="50" relative="1" as="geometry">
                        <mxPoint x="305" y="485" as="sourcePoint"/>
                        <mxPoint x="255" y="525" as="targetPoint"/>
                    </mxGeometry>
                </mxCell>
                <mxCell id="78" value="" style="endArrow=none;html=1;fontSize=15;strokeColor=#000000;fontColor=#000000;" parent="1" edge="1">
                    <mxGeometry width="50" height="50" relative="1" as="geometry">
                        <mxPoint x="305" y="485" as="sourcePoint"/>
                        <mxPoint x="355" y="525" as="targetPoint"/>
                    </mxGeometry>
                </mxCell>
                <mxCell id="80" value="" style="endArrow=none;html=1;fontSize=15;strokeColor=#000000;fontColor=#000000;" parent="1" edge="1">
                    <mxGeometry width="50" height="50" relative="1" as="geometry">
                        <mxPoint x="280" y="575" as="sourcePoint"/>
                        <mxPoint x="255" y="525" as="targetPoint"/>
                    </mxGeometry>
                </mxCell>
                <mxCell id="81" value="" style="endArrow=none;html=1;fontSize=15;strokeColor=#000000;fontColor=#000000;" parent="1" edge="1">
                    <mxGeometry width="50" height="50" relative="1" as="geometry">
                        <mxPoint x="230" y="575" as="sourcePoint"/>
                        <mxPoint x="255" y="525" as="targetPoint"/>
                    </mxGeometry>
                </mxCell>
                <mxCell id="82" value="" style="endArrow=none;html=1;fontSize=15;strokeColor=#000000;fontColor=#000000;" parent="1" edge="1">
                    <mxGeometry width="50" height="50" relative="1" as="geometry">
                        <mxPoint x="180" y="575" as="sourcePoint"/>
                        <mxPoint x="155" y="525" as="targetPoint"/>
                    </mxGeometry>
                </mxCell>
                <mxCell id="83" value="" style="endArrow=none;html=1;fontSize=15;strokeColor=#000000;fontColor=#000000;" parent="1" edge="1">
                    <mxGeometry width="50" height="50" relative="1" as="geometry">
                        <mxPoint x="130" y="575" as="sourcePoint"/>
                        <mxPoint x="155" y="525" as="targetPoint"/>
                    </mxGeometry>
                </mxCell>
                <mxCell id="84" value="" style="endArrow=none;html=1;fontSize=15;strokeColor=#000000;fontColor=#000000;" parent="1" edge="1">
                    <mxGeometry width="50" height="50" relative="1" as="geometry">
                        <mxPoint x="80" y="575" as="sourcePoint"/>
                        <mxPoint x="55" y="525" as="targetPoint"/>
                    </mxGeometry>
                </mxCell>
                <mxCell id="85" value="" style="endArrow=none;html=1;fontSize=15;strokeColor=#000000;fontColor=#000000;" parent="1" edge="1">
                    <mxGeometry width="50" height="50" relative="1" as="geometry">
                        <mxPoint x="30" y="575" as="sourcePoint"/>
                        <mxPoint x="55" y="525" as="targetPoint"/>
                    </mxGeometry>
                </mxCell>
                <mxCell id="86" value="" style="endArrow=none;html=1;fontSize=15;strokeColor=#000000;fontColor=#000000;" parent="1" edge="1">
                    <mxGeometry width="50" height="50" relative="1" as="geometry">
                        <mxPoint x="105" y="485" as="sourcePoint"/>
                        <mxPoint x="55" y="525" as="targetPoint"/>
                    </mxGeometry>
                </mxCell>
                <mxCell id="87" value="" style="endArrow=none;html=1;fontSize=15;strokeColor=#000000;fontColor=#000000;" parent="1" edge="1">
                    <mxGeometry width="50" height="50" relative="1" as="geometry">
                        <mxPoint x="105" y="485" as="sourcePoint"/>
                        <mxPoint x="205" y="455" as="targetPoint"/>
                    </mxGeometry>
                </mxCell>
                <mxCell id="88" value="" style="endArrow=none;html=1;fontSize=15;strokeColor=#000000;fontColor=#000000;" parent="1" edge="1">
                    <mxGeometry width="50" height="50" relative="1" as="geometry">
                        <mxPoint x="305" y="485" as="sourcePoint"/>
                        <mxPoint x="205" y="455" as="targetPoint"/>
                    </mxGeometry>
                </mxCell>
                <mxCell id="89" value="3" style="ellipse;whiteSpace=wrap;html=1;aspect=fixed;fontSize=15;strokeColor=#000000;fontColor=#000000;fillColor=#FFFFFF;" parent="1" vertex="1">
                    <mxGeometry x="90" y="470" width="30" height="30" as="geometry"/>
                </mxCell>
                <mxCell id="90" value="7" style="ellipse;whiteSpace=wrap;html=1;aspect=fixed;fontSize=15;strokeColor=#000000;fillColor=#ffe6cc;" parent="1" vertex="1">
                    <mxGeometry x="190" y="440" width="30" height="30" as="geometry"/>
                </mxCell>
                <mxCell id="91" value="1" style="ellipse;whiteSpace=wrap;html=1;aspect=fixed;fontSize=15;strokeColor=#000000;fontColor=#000000;fillColor=#FFFFFF;" parent="1" vertex="1">
                    <mxGeometry x="290" y="470" width="30" height="30" as="geometry"/>
                </mxCell>
                <mxCell id="92" value="5" style="ellipse;whiteSpace=wrap;html=1;aspect=fixed;fontSize=15;strokeColor=#000000;fontColor=#000000;fillColor=#FFFFFF;" parent="1" vertex="1">
                    <mxGeometry x="40" y="510" width="30" height="30" as="geometry"/>
                </mxCell>
                <mxCell id="93" value="6" style="ellipse;whiteSpace=wrap;html=1;aspect=fixed;fontSize=15;strokeColor=#000000;fontColor=#000000;fillColor=#FFFFFF;" parent="1" vertex="1">
                    <mxGeometry x="140" y="510" width="30" height="30" as="geometry"/>
                </mxCell>
                <mxCell id="94" value="4" style="ellipse;whiteSpace=wrap;html=1;aspect=fixed;fontSize=15;strokeColor=#000000;fontColor=#000000;fillColor=#FFFFFF;" parent="1" vertex="1">
                    <mxGeometry x="240" y="510" width="30" height="30" as="geometry"/>
                </mxCell>
                <mxCell id="95" value="2" style="ellipse;whiteSpace=wrap;html=1;aspect=fixed;fontSize=15;strokeColor=#000000;fontColor=#000000;fillColor=#FFFFFF;" parent="1" vertex="1">
                    <mxGeometry x="340" y="510" width="30" height="30" as="geometry"/>
                </mxCell>
                <mxCell id="96" value="9" style="ellipse;whiteSpace=wrap;html=1;aspect=fixed;fontSize=15;strokeColor=#000000;fontColor=#000000;fillColor=#FFFFFF;" parent="1" vertex="1">
                    <mxGeometry x="15" y="560" width="30" height="30" as="geometry"/>
                </mxCell>
                <mxCell id="97" value="14" style="ellipse;whiteSpace=wrap;html=1;aspect=fixed;fontSize=15;strokeColor=#000000;fontColor=#000000;fillColor=#FFFFFF;" parent="1" vertex="1">
                    <mxGeometry x="65" y="560" width="30" height="30" as="geometry"/>
                </mxCell>
                <mxCell id="98" value="11" style="ellipse;whiteSpace=wrap;html=1;aspect=fixed;fontSize=15;strokeColor=#000000;fontColor=#000000;fillColor=#FFFFFF;" parent="1" vertex="1">
                    <mxGeometry x="115" y="560" width="30" height="30" as="geometry"/>
                </mxCell>
                <mxCell id="99" value="10" style="ellipse;whiteSpace=wrap;html=1;aspect=fixed;fontSize=15;strokeColor=#000000;fontColor=#000000;fillColor=#FFFFFF;" parent="1" vertex="1">
                    <mxGeometry x="165" y="560" width="30" height="30" as="geometry"/>
                </mxCell>
                <mxCell id="100" value="15" style="ellipse;whiteSpace=wrap;html=1;aspect=fixed;fontSize=15;strokeColor=#000000;fontColor=#000000;fillColor=#FFFFFF;" parent="1" vertex="1">
                    <mxGeometry x="215" y="560" width="30" height="30" as="geometry"/>
                </mxCell>
                <mxCell id="101" value="8" style="ellipse;whiteSpace=wrap;html=1;aspect=fixed;fontSize=15;strokeColor=#000000;fontColor=#000000;fillColor=#FFFFFF;" parent="1" vertex="1">
                    <mxGeometry x="265" y="560" width="30" height="30" as="geometry"/>
                </mxCell>
                <mxCell id="103" value="7" style="whiteSpace=wrap;html=1;aspect=fixed;strokeColor=#000000;strokeWidth=1;fontSize=14;fillColor=#ffe6cc;" parent="1" vertex="1">
                    <mxGeometry x="410" y="560" width="30" height="30" as="geometry"/>
                </mxCell>
                <mxCell id="104" value="3" style="whiteSpace=wrap;html=1;aspect=fixed;strokeColor=#000000;strokeWidth=1;fontSize=14;fontColor=#000000;fillColor=#FFFFFF;" parent="1" vertex="1">
                    <mxGeometry x="440" y="560" width="30" height="30" as="geometry"/>
                </mxCell>
                <mxCell id="105" value="1" style="whiteSpace=wrap;html=1;aspect=fixed;strokeColor=#000000;strokeWidth=1;fontSize=14;fontColor=#000000;fillColor=#FFFFFF;" parent="1" vertex="1">
                    <mxGeometry x="470" y="560" width="30" height="30" as="geometry"/>
                </mxCell>
                <mxCell id="106" value="5" style="whiteSpace=wrap;html=1;aspect=fixed;strokeColor=#000000;strokeWidth=1;fontSize=14;fontColor=#000000;fillColor=#FFFFFF;" parent="1" vertex="1">
                    <mxGeometry x="500" y="560" width="30" height="30" as="geometry"/>
                </mxCell>
                <mxCell id="107" value="6" style="whiteSpace=wrap;html=1;aspect=fixed;strokeColor=#000000;strokeWidth=1;fontSize=14;fontColor=#000000;fillColor=#FFFFFF;" parent="1" vertex="1">
                    <mxGeometry x="530" y="560" width="30" height="30" as="geometry"/>
                </mxCell>
                <mxCell id="108" value="4" style="whiteSpace=wrap;html=1;aspect=fixed;strokeColor=#000000;strokeWidth=1;fontSize=14;fontColor=#000000;fillColor=#FFFFFF;" parent="1" vertex="1">
                    <mxGeometry x="560" y="560" width="30" height="30" as="geometry"/>
                </mxCell>
                <mxCell id="109" value="2" style="whiteSpace=wrap;html=1;aspect=fixed;strokeColor=#000000;strokeWidth=1;fontSize=14;fontColor=#000000;fillColor=#FFFFFF;" parent="1" vertex="1">
                    <mxGeometry x="590" y="560" width="30" height="30" as="geometry"/>
                </mxCell>
                <mxCell id="110" value="9" style="whiteSpace=wrap;html=1;aspect=fixed;strokeColor=#000000;strokeWidth=1;fontSize=14;fontColor=#000000;fillColor=#FFFFFF;" parent="1" vertex="1">
                    <mxGeometry x="620" y="560" width="30" height="30" as="geometry"/>
                </mxCell>
                <mxCell id="111" value="14" style="whiteSpace=wrap;html=1;aspect=fixed;strokeColor=#000000;strokeWidth=1;fontSize=14;fontColor=#000000;fillColor=#FFFFFF;" parent="1" vertex="1">
                    <mxGeometry x="650" y="560" width="30" height="30" as="geometry"/>
                </mxCell>
                <mxCell id="112" value="11" style="whiteSpace=wrap;html=1;aspect=fixed;strokeColor=#000000;strokeWidth=1;fontSize=14;fontColor=#000000;fillColor=#FFFFFF;" parent="1" vertex="1">
                    <mxGeometry x="680" y="560" width="30" height="30" as="geometry"/>
                </mxCell>
                <mxCell id="113" value="10" style="whiteSpace=wrap;html=1;aspect=fixed;strokeColor=#000000;strokeWidth=1;fontSize=14;fontColor=#000000;fillColor=#FFFFFF;" parent="1" vertex="1">
                    <mxGeometry x="710" y="560" width="30" height="30" as="geometry"/>
                </mxCell>
                <mxCell id="114" value="15" style="whiteSpace=wrap;html=1;aspect=fixed;strokeColor=#000000;strokeWidth=1;fontSize=14;fontColor=#000000;fillColor=#FFFFFF;" parent="1" vertex="1">
                    <mxGeometry x="740" y="560" width="30" height="30" as="geometry"/>
                </mxCell>
                <mxCell id="115" value="8" style="whiteSpace=wrap;html=1;aspect=fixed;strokeColor=#000000;strokeWidth=1;fontSize=14;fontColor=#000000;fillColor=#FFFFFF;" parent="1" vertex="1">
                    <mxGeometry x="770" y="560" width="30" height="30" as="geometry"/>
                </mxCell>
                <mxCell id="117" value="" style="line;strokeWidth=1;html=1;fontColor=#000000;dashed=1;strokeColor=#000000;" parent="1" vertex="1">
                    <mxGeometry x="2.5" y="620" width="835" height="10" as="geometry"/>
                </mxCell>
                <mxCell id="118" value="step2:若这个节点大于子节点，则bubble down(与smaller child交换)" style="text;html=1;strokeColor=#6c8ebf;fillColor=#dae8fc;align=center;verticalAlign=middle;whiteSpace=wrap;rounded=0;strokeWidth=1;fontColor=#000000;fontSize=15;" parent="1" vertex="1">
                    <mxGeometry x="2.5" y="650" width="237.5" height="50" as="geometry"/>
                </mxCell>
                <mxCell id="201" value="bubble down" style="endArrow=classic;html=1;strokeColor=#000000;fontSize=15;fontColor=#000000;labelBackgroundColor=#FFFFFF;" parent="1" edge="1">
                    <mxGeometry width="50" height="50" relative="1" as="geometry">
                        <mxPoint x="380" y="916" as="sourcePoint"/>
                        <mxPoint x="380" y="1026" as="targetPoint"/>
                    </mxGeometry>
                </mxCell>
                <mxCell id="243" value="bubble down" style="endArrow=classic;html=1;strokeColor=#000000;fontSize=15;fontColor=#000000;labelBackgroundColor=#FFFFFF;" parent="1" edge="1">
                    <mxGeometry x="-0.0061" width="50" height="50" relative="1" as="geometry">
                        <mxPoint x="380" y="1204" as="sourcePoint"/>
                        <mxPoint x="380" y="1314" as="targetPoint"/>
                        <mxPoint as="offset"/>
                    </mxGeometry>
                </mxCell>
                <mxCell id="334" value="" style="line;strokeWidth=1;html=1;fontColor=#000000;dashed=1;strokeColor=#FFFFFF;fillColor=#FFFFFF;" parent="1" vertex="1">
                    <mxGeometry x="5" y="1500" width="835" height="10" as="geometry"/>
                </mxCell>
                <mxCell id="346" value="" style="endArrow=none;html=1;fontSize=15;fontColor=#000000;" edge="1" parent="1">
                    <mxGeometry width="50" height="50" relative="1" as="geometry">
                        <mxPoint x="105" y="200" as="sourcePoint"/>
                        <mxPoint x="155" y="240" as="targetPoint"/>
                    </mxGeometry>
                </mxCell>
                <mxCell id="347" value="" style="endArrow=none;html=1;fontSize=15;fontColor=#000000;" edge="1" parent="1">
                    <mxGeometry width="50" height="50" relative="1" as="geometry">
                        <mxPoint x="305" y="200" as="sourcePoint"/>
                        <mxPoint x="255" y="240" as="targetPoint"/>
                    </mxGeometry>
                </mxCell>
                <mxCell id="348" value="" style="endArrow=none;html=1;fontSize=15;fontColor=#000000;startArrow=none;" edge="1" source="388" parent="1">
                    <mxGeometry width="50" height="50" relative="1" as="geometry">
                        <mxPoint x="305" y="200" as="sourcePoint"/>
                        <mxPoint x="355.0000000000002" y="240" as="targetPoint"/>
                    </mxGeometry>
                </mxCell>
                <mxCell id="349" value="" style="endArrow=none;html=1;fontSize=15;fontColor=#000000;startArrow=none;" edge="1" source="388" parent="1">
                    <mxGeometry width="50" height="50" relative="1" as="geometry">
                        <mxPoint x="330" y="290" as="sourcePoint"/>
                        <mxPoint x="355.0000000000002" y="240" as="targetPoint"/>
                    </mxGeometry>
                </mxCell>
                <mxCell id="350" value="" style="endArrow=none;html=1;fontSize=15;fontColor=#000000;" edge="1" parent="1">
                    <mxGeometry width="50" height="50" relative="1" as="geometry">
                        <mxPoint x="280" y="290" as="sourcePoint"/>
                        <mxPoint x="255" y="240" as="targetPoint"/>
                    </mxGeometry>
                </mxCell>
                <mxCell id="351" value="" style="endArrow=none;html=1;fontSize=15;fontColor=#000000;" edge="1" parent="1">
                    <mxGeometry width="50" height="50" relative="1" as="geometry">
                        <mxPoint x="230" y="290" as="sourcePoint"/>
                        <mxPoint x="255" y="240" as="targetPoint"/>
                    </mxGeometry>
                </mxCell>
                <mxCell id="352" value="" style="endArrow=none;html=1;fontSize=15;fontColor=#000000;" edge="1" parent="1">
                    <mxGeometry width="50" height="50" relative="1" as="geometry">
                        <mxPoint x="180" y="290" as="sourcePoint"/>
                        <mxPoint x="155" y="240" as="targetPoint"/>
                    </mxGeometry>
                </mxCell>
                <mxCell id="353" value="" style="endArrow=none;html=1;fontSize=15;fontColor=#000000;" edge="1" parent="1">
                    <mxGeometry width="50" height="50" relative="1" as="geometry">
                        <mxPoint x="130" y="290" as="sourcePoint"/>
                        <mxPoint x="155" y="240" as="targetPoint"/>
                    </mxGeometry>
                </mxCell>
                <mxCell id="354" value="" style="endArrow=none;html=1;fontSize=15;fontColor=#000000;" edge="1" parent="1">
                    <mxGeometry width="50" height="50" relative="1" as="geometry">
                        <mxPoint x="80" y="290" as="sourcePoint"/>
                        <mxPoint x="55" y="240" as="targetPoint"/>
                    </mxGeometry>
                </mxCell>
                <mxCell id="355" value="" style="endArrow=none;html=1;fontSize=15;fontColor=#000000;" edge="1" parent="1">
                    <mxGeometry width="50" height="50" relative="1" as="geometry">
                        <mxPoint x="30" y="290" as="sourcePoint"/>
                        <mxPoint x="55" y="240" as="targetPoint"/>
                    </mxGeometry>
                </mxCell>
                <mxCell id="356" value="" style="endArrow=none;html=1;fontSize=15;fontColor=#000000;" edge="1" parent="1">
                    <mxGeometry width="50" height="50" relative="1" as="geometry">
                        <mxPoint x="105" y="200" as="sourcePoint"/>
                        <mxPoint x="55" y="240" as="targetPoint"/>
                    </mxGeometry>
                </mxCell>
                <mxCell id="357" value="" style="endArrow=none;html=1;fontSize=15;fontColor=#000000;" edge="1" parent="1">
                    <mxGeometry width="50" height="50" relative="1" as="geometry">
                        <mxPoint x="105" y="200" as="sourcePoint"/>
                        <mxPoint x="205" y="170" as="targetPoint"/>
                    </mxGeometry>
                </mxCell>
                <mxCell id="358" value="" style="endArrow=none;html=1;fontSize=15;fontColor=#000000;" edge="1" parent="1">
                    <mxGeometry width="50" height="50" relative="1" as="geometry">
                        <mxPoint x="305" y="200" as="sourcePoint"/>
                        <mxPoint x="205" y="170" as="targetPoint"/>
                    </mxGeometry>
                </mxCell>
                <mxCell id="359" value="3" style="ellipse;whiteSpace=wrap;html=1;aspect=fixed;fontSize=15;" vertex="1" parent="1">
                    <mxGeometry x="90" y="185" width="30" height="30" as="geometry"/>
                </mxCell>
                <mxCell id="360" value="0" style="ellipse;whiteSpace=wrap;html=1;aspect=fixed;fontSize=15;fillColor=#e1d5e7;strokeColor=#000000;" vertex="1" parent="1">
                    <mxGeometry x="190" y="155" width="30" height="30" as="geometry"/>
                </mxCell>
                <mxCell id="361" value="5" style="ellipse;whiteSpace=wrap;html=1;aspect=fixed;fontSize=15;" vertex="1" parent="1">
                    <mxGeometry x="40" y="225" width="30" height="30" as="geometry"/>
                </mxCell>
                <mxCell id="362" value="6" style="ellipse;whiteSpace=wrap;html=1;aspect=fixed;fontSize=15;" vertex="1" parent="1">
                    <mxGeometry x="140" y="225" width="30" height="30" as="geometry"/>
                </mxCell>
                <mxCell id="363" value="4" style="ellipse;whiteSpace=wrap;html=1;aspect=fixed;fontSize=15;" vertex="1" parent="1">
                    <mxGeometry x="240" y="225" width="30" height="30" as="geometry"/>
                </mxCell>
                <mxCell id="364" value="9" style="ellipse;whiteSpace=wrap;html=1;aspect=fixed;fontSize=15;" vertex="1" parent="1">
                    <mxGeometry x="15" y="275" width="30" height="30" as="geometry"/>
                </mxCell>
                <mxCell id="365" value="14" style="ellipse;whiteSpace=wrap;html=1;aspect=fixed;fontSize=15;" vertex="1" parent="1">
                    <mxGeometry x="65" y="275" width="30" height="30" as="geometry"/>
                </mxCell>
                <mxCell id="366" value="11" style="ellipse;whiteSpace=wrap;html=1;aspect=fixed;fontSize=15;" vertex="1" parent="1">
                    <mxGeometry x="115" y="275" width="30" height="30" as="geometry"/>
                </mxCell>
                <mxCell id="367" value="10" style="ellipse;whiteSpace=wrap;html=1;aspect=fixed;fontSize=15;" vertex="1" parent="1">
                    <mxGeometry x="165" y="275" width="30" height="30" as="geometry"/>
                </mxCell>
                <mxCell id="368" value="15" style="ellipse;whiteSpace=wrap;html=1;aspect=fixed;fontSize=15;" vertex="1" parent="1">
                    <mxGeometry x="215" y="275" width="30" height="30" as="geometry"/>
                </mxCell>
                <mxCell id="369" value="8" style="ellipse;whiteSpace=wrap;html=1;aspect=fixed;fontSize=15;" vertex="1" parent="1">
                    <mxGeometry x="265" y="275" width="30" height="30" as="geometry"/>
                </mxCell>
                <mxCell id="370" value="0" style="whiteSpace=wrap;html=1;aspect=fixed;strokeWidth=1;fontSize=14;fillColor=#e1d5e7;strokeColor=#000000;" vertex="1" parent="1">
                    <mxGeometry x="410" y="275" width="30" height="30" as="geometry"/>
                </mxCell>
                <mxCell id="371" value="3" style="whiteSpace=wrap;html=1;aspect=fixed;strokeWidth=1;fontSize=14;" vertex="1" parent="1">
                    <mxGeometry x="440" y="275" width="30" height="30" as="geometry"/>
                </mxCell>
                <mxCell id="372" value="2" style="whiteSpace=wrap;html=1;aspect=fixed;strokeWidth=1;fontSize=14;" vertex="1" parent="1">
                    <mxGeometry x="590" y="275" width="30" height="30" as="geometry"/>
                </mxCell>
                <mxCell id="373" value="5" style="whiteSpace=wrap;html=1;aspect=fixed;strokeWidth=1;fontSize=14;" vertex="1" parent="1">
                    <mxGeometry x="500" y="275" width="30" height="30" as="geometry"/>
                </mxCell>
                <mxCell id="374" value="6" style="whiteSpace=wrap;html=1;aspect=fixed;strokeWidth=1;fontSize=14;" vertex="1" parent="1">
                    <mxGeometry x="530" y="275" width="30" height="30" as="geometry"/>
                </mxCell>
                <mxCell id="375" value="4" style="whiteSpace=wrap;html=1;aspect=fixed;strokeWidth=1;fontSize=14;" vertex="1" parent="1">
                    <mxGeometry x="560" y="275" width="30" height="30" as="geometry"/>
                </mxCell>
                <mxCell id="376" value="1" style="whiteSpace=wrap;html=1;aspect=fixed;strokeWidth=1;fontSize=14;" vertex="1" parent="1">
                    <mxGeometry x="470" y="275" width="30" height="30" as="geometry"/>
                </mxCell>
                <mxCell id="377" value="9" style="whiteSpace=wrap;html=1;aspect=fixed;strokeWidth=1;fontSize=14;" vertex="1" parent="1">
                    <mxGeometry x="620" y="275" width="30" height="30" as="geometry"/>
                </mxCell>
                <mxCell id="378" value="14" style="whiteSpace=wrap;html=1;aspect=fixed;strokeWidth=1;fontSize=14;" vertex="1" parent="1">
                    <mxGeometry x="650" y="275" width="30" height="30" as="geometry"/>
                </mxCell>
                <mxCell id="379" value="11" style="whiteSpace=wrap;html=1;aspect=fixed;strokeWidth=1;fontSize=14;" vertex="1" parent="1">
                    <mxGeometry x="680" y="275" width="30" height="30" as="geometry"/>
                </mxCell>
                <mxCell id="380" value="10" style="whiteSpace=wrap;html=1;aspect=fixed;strokeWidth=1;fontSize=14;" vertex="1" parent="1">
                    <mxGeometry x="710" y="275" width="30" height="30" as="geometry"/>
                </mxCell>
                <mxCell id="381" value="15" style="whiteSpace=wrap;html=1;aspect=fixed;strokeWidth=1;fontSize=14;" vertex="1" parent="1">
                    <mxGeometry x="740" y="275" width="30" height="30" as="geometry"/>
                </mxCell>
                <mxCell id="382" value="8" style="whiteSpace=wrap;html=1;aspect=fixed;strokeWidth=1;fontSize=14;" vertex="1" parent="1">
                    <mxGeometry x="770" y="275" width="30" height="30" as="geometry"/>
                </mxCell>
                <mxCell id="383" value="7" style="whiteSpace=wrap;html=1;aspect=fixed;strokeWidth=1;fontSize=14;fillColor=#ffe6cc;strokeColor=#000000;" vertex="1" parent="1">
                    <mxGeometry x="800" y="275" width="30" height="30" as="geometry"/>
                </mxCell>
                <mxCell id="384" value="" style="endArrow=none;html=1;fontSize=15;fontColor=#000000;startArrow=none;" edge="1" source="386" target="388" parent="1">
                    <mxGeometry width="50" height="50" relative="1" as="geometry">
                        <mxPoint x="305" y="199.99999999999955" as="sourcePoint"/>
                        <mxPoint x="355" y="239.99999999999955" as="targetPoint"/>
                    </mxGeometry>
                </mxCell>
                <mxCell id="385" value="" style="endArrow=none;html=1;fontSize=15;fontColor=#000000;" edge="1" target="386" parent="1">
                    <mxGeometry width="50" height="50" relative="1" as="geometry">
                        <mxPoint x="305" y="199.99999999999955" as="sourcePoint"/>
                        <mxPoint x="334.39339828218294" y="229.39339828218272" as="targetPoint"/>
                    </mxGeometry>
                </mxCell>
                <mxCell id="386" value="1" style="ellipse;whiteSpace=wrap;html=1;aspect=fixed;fontSize=15;" vertex="1" parent="1">
                    <mxGeometry x="290" y="185" width="30" height="30" as="geometry"/>
                </mxCell>
                <mxCell id="387" value="" style="endArrow=none;html=1;fontSize=15;fontColor=#000000;" edge="1" target="388" parent="1">
                    <mxGeometry width="50" height="50" relative="1" as="geometry">
                        <mxPoint x="330.0000000000002" y="289.99999999999955" as="sourcePoint"/>
                        <mxPoint x="355" y="239.99999999999955" as="targetPoint"/>
                    </mxGeometry>
                </mxCell>
                <mxCell id="388" value="2" style="ellipse;whiteSpace=wrap;html=1;aspect=fixed;fontSize=15;" vertex="1" parent="1">
                    <mxGeometry x="340" y="225" width="30" height="30" as="geometry"/>
                </mxCell>
                <mxCell id="389" value="7" style="ellipse;whiteSpace=wrap;html=1;aspect=fixed;fontSize=15;fillColor=#ffe6cc;strokeColor=#000000;" vertex="1" parent="1">
                    <mxGeometry x="315" y="275" width="30" height="30" as="geometry"/>
                </mxCell>
                <mxCell id="390" value="2" style="ellipse;whiteSpace=wrap;html=1;aspect=fixed;fontSize=15;" vertex="1" parent="1">
                    <mxGeometry x="340" y="225" width="30" height="30" as="geometry"/>
                </mxCell>
                <mxCell id="393" style="edgeStyle=none;html=1;exitX=0;exitY=0.5;exitDx=0;exitDy=0;fontSize=15;fillColor=#e1d5e7;strokeColor=#9673a6;dashed=1;" edge="1" parent="1" source="392">
                    <mxGeometry relative="1" as="geometry">
                        <mxPoint x="230" y="160" as="targetPoint"/>
                    </mxGeometry>
                </mxCell>
                <mxCell id="394" style="edgeStyle=none;html=1;exitX=0.5;exitY=1;exitDx=0;exitDy=0;fontSize=15;fillColor=#e1d5e7;strokeColor=#9673a6;dashed=1;" edge="1" parent="1" source="392">
                    <mxGeometry relative="1" as="geometry">
                        <mxPoint x="419.9999999999998" y="270" as="targetPoint"/>
                    </mxGeometry>
                </mxCell>
                <mxCell id="392" value="最小值" style="rounded=0;whiteSpace=wrap;html=1;fillColor=#e1d5e7;strokeColor=#9673a6;fontSize=15;" vertex="1" parent="1">
                    <mxGeometry x="370" y="115" width="60" height="30" as="geometry"/>
                </mxCell>
                <mxCell id="396" style="edgeStyle=none;html=1;exitX=0.75;exitY=1;exitDx=0;exitDy=0;dashed=1;fontSize=15;fillColor=#ffe6cc;strokeColor=#d79b00;" edge="1" parent="1" source="395">
                    <mxGeometry relative="1" as="geometry">
                        <mxPoint x="819.9999999999998" y="270" as="targetPoint"/>
                    </mxGeometry>
                </mxCell>
                <mxCell id="397" style="edgeStyle=none;html=1;exitX=0.25;exitY=1;exitDx=0;exitDy=0;dashed=1;fontSize=15;fillColor=#ffe6cc;strokeColor=#d79b00;" edge="1" parent="1" source="395">
                    <mxGeometry relative="1" as="geometry">
                        <mxPoint x="350.0000000000002" y="280" as="targetPoint"/>
                    </mxGeometry>
                </mxCell>
                <mxCell id="395" value="最后一个节点" style="rounded=0;whiteSpace=wrap;html=1;fillColor=#ffe6cc;strokeColor=#d79b00;fontSize=15;" vertex="1" parent="1">
                    <mxGeometry x="490" y="190" width="110" height="30" as="geometry"/>
                </mxCell>
                <mxCell id="398" value="最小值:" style="rounded=0;whiteSpace=wrap;html=1;fillColor=#e1d5e7;strokeColor=#9673a6;fontSize=15;" vertex="1" parent="1">
                    <mxGeometry x="10" y="410" width="60" height="30" as="geometry"/>
                </mxCell>
                <mxCell id="399" value="0" style="ellipse;whiteSpace=wrap;html=1;aspect=fixed;fontSize=15;fillColor=#e1d5e7;strokeColor=#000000;" vertex="1" parent="1">
                    <mxGeometry x="80" y="410" width="30" height="30" as="geometry"/>
                </mxCell>
                <mxCell id="400" value="" style="endArrow=none;html=1;fontSize=15;strokeColor=#000000;fontColor=#000000;" edge="1" parent="1">
                    <mxGeometry width="50" height="50" relative="1" as="geometry">
                        <mxPoint x="105" y="787" as="sourcePoint"/>
                        <mxPoint x="155" y="827" as="targetPoint"/>
                    </mxGeometry>
                </mxCell>
                <mxCell id="401" value="" style="endArrow=none;html=1;fontSize=15;strokeColor=#000000;fontColor=#000000;" edge="1" parent="1">
                    <mxGeometry width="50" height="50" relative="1" as="geometry">
                        <mxPoint x="305" y="787" as="sourcePoint"/>
                        <mxPoint x="255" y="827" as="targetPoint"/>
                    </mxGeometry>
                </mxCell>
                <mxCell id="402" value="" style="endArrow=none;html=1;fontSize=15;strokeColor=#000000;fontColor=#000000;" edge="1" parent="1">
                    <mxGeometry width="50" height="50" relative="1" as="geometry">
                        <mxPoint x="305" y="787" as="sourcePoint"/>
                        <mxPoint x="355" y="827" as="targetPoint"/>
                    </mxGeometry>
                </mxCell>
                <mxCell id="403" value="" style="endArrow=none;html=1;fontSize=15;strokeColor=#000000;fontColor=#000000;" edge="1" parent="1">
                    <mxGeometry width="50" height="50" relative="1" as="geometry">
                        <mxPoint x="280" y="877" as="sourcePoint"/>
                        <mxPoint x="255" y="827" as="targetPoint"/>
                    </mxGeometry>
                </mxCell>
                <mxCell id="404" value="" style="endArrow=none;html=1;fontSize=15;strokeColor=#000000;fontColor=#000000;" edge="1" parent="1">
                    <mxGeometry width="50" height="50" relative="1" as="geometry">
                        <mxPoint x="230" y="877" as="sourcePoint"/>
                        <mxPoint x="255" y="827" as="targetPoint"/>
                    </mxGeometry>
                </mxCell>
                <mxCell id="405" value="" style="endArrow=none;html=1;fontSize=15;strokeColor=#000000;fontColor=#000000;" edge="1" parent="1">
                    <mxGeometry width="50" height="50" relative="1" as="geometry">
                        <mxPoint x="180" y="877" as="sourcePoint"/>
                        <mxPoint x="155" y="827" as="targetPoint"/>
                    </mxGeometry>
                </mxCell>
                <mxCell id="406" value="" style="endArrow=none;html=1;fontSize=15;strokeColor=#000000;fontColor=#000000;" edge="1" parent="1">
                    <mxGeometry width="50" height="50" relative="1" as="geometry">
                        <mxPoint x="130" y="877" as="sourcePoint"/>
                        <mxPoint x="155" y="827" as="targetPoint"/>
                    </mxGeometry>
                </mxCell>
                <mxCell id="407" value="" style="endArrow=none;html=1;fontSize=15;strokeColor=#000000;fontColor=#000000;" edge="1" parent="1">
                    <mxGeometry width="50" height="50" relative="1" as="geometry">
                        <mxPoint x="80" y="877" as="sourcePoint"/>
                        <mxPoint x="55" y="827" as="targetPoint"/>
                    </mxGeometry>
                </mxCell>
                <mxCell id="408" value="" style="endArrow=none;html=1;fontSize=15;strokeColor=#000000;fontColor=#000000;" edge="1" parent="1">
                    <mxGeometry width="50" height="50" relative="1" as="geometry">
                        <mxPoint x="30" y="877" as="sourcePoint"/>
                        <mxPoint x="55" y="827" as="targetPoint"/>
                    </mxGeometry>
                </mxCell>
                <mxCell id="409" value="" style="endArrow=none;html=1;fontSize=15;strokeColor=#000000;fontColor=#000000;" edge="1" parent="1">
                    <mxGeometry width="50" height="50" relative="1" as="geometry">
                        <mxPoint x="105" y="787" as="sourcePoint"/>
                        <mxPoint x="55" y="827" as="targetPoint"/>
                    </mxGeometry>
                </mxCell>
                <mxCell id="410" value="" style="endArrow=none;html=1;fontSize=15;strokeColor=#000000;fontColor=#000000;" edge="1" parent="1">
                    <mxGeometry width="50" height="50" relative="1" as="geometry">
                        <mxPoint x="105" y="787" as="sourcePoint"/>
                        <mxPoint x="205" y="757" as="targetPoint"/>
                    </mxGeometry>
                </mxCell>
                <mxCell id="411" value="" style="endArrow=none;html=1;fontSize=15;strokeColor=#000000;fontColor=#000000;" edge="1" parent="1">
                    <mxGeometry width="50" height="50" relative="1" as="geometry">
                        <mxPoint x="305" y="787" as="sourcePoint"/>
                        <mxPoint x="205" y="757" as="targetPoint"/>
                    </mxGeometry>
                </mxCell>
                <mxCell id="412" value="3" style="ellipse;whiteSpace=wrap;html=1;aspect=fixed;fontSize=15;strokeColor=#000000;fontColor=#000000;fillColor=#FFFFFF;" vertex="1" parent="1">
                    <mxGeometry x="90" y="772" width="30" height="30" as="geometry"/>
                </mxCell>
                <mxCell id="413" value="7" style="ellipse;whiteSpace=wrap;html=1;aspect=fixed;fontSize=15;strokeColor=#000000;fillColor=#ffe6cc;" vertex="1" parent="1">
                    <mxGeometry x="190" y="742" width="30" height="30" as="geometry"/>
                </mxCell>
                <mxCell id="414" value="1" style="ellipse;whiteSpace=wrap;html=1;aspect=fixed;fontSize=15;strokeColor=#000000;fontColor=#000000;fillColor=#FFFFFF;" vertex="1" parent="1">
                    <mxGeometry x="290" y="772" width="30" height="30" as="geometry"/>
                </mxCell>
                <mxCell id="415" value="5" style="ellipse;whiteSpace=wrap;html=1;aspect=fixed;fontSize=15;strokeColor=#000000;fontColor=#000000;fillColor=#FFFFFF;" vertex="1" parent="1">
                    <mxGeometry x="40" y="812" width="30" height="30" as="geometry"/>
                </mxCell>
                <mxCell id="416" value="6" style="ellipse;whiteSpace=wrap;html=1;aspect=fixed;fontSize=15;strokeColor=#000000;fontColor=#000000;fillColor=#FFFFFF;" vertex="1" parent="1">
                    <mxGeometry x="140" y="812" width="30" height="30" as="geometry"/>
                </mxCell>
                <mxCell id="417" value="4" style="ellipse;whiteSpace=wrap;html=1;aspect=fixed;fontSize=15;strokeColor=#000000;fontColor=#000000;fillColor=#FFFFFF;" vertex="1" parent="1">
                    <mxGeometry x="240" y="812" width="30" height="30" as="geometry"/>
                </mxCell>
                <mxCell id="418" value="2" style="ellipse;whiteSpace=wrap;html=1;aspect=fixed;fontSize=15;strokeColor=#000000;fontColor=#000000;fillColor=#FFFFFF;" vertex="1" parent="1">
                    <mxGeometry x="340" y="812" width="30" height="30" as="geometry"/>
                </mxCell>
                <mxCell id="419" value="9" style="ellipse;whiteSpace=wrap;html=1;aspect=fixed;fontSize=15;strokeColor=#000000;fontColor=#000000;fillColor=#FFFFFF;" vertex="1" parent="1">
                    <mxGeometry x="15" y="862" width="30" height="30" as="geometry"/>
                </mxCell>
                <mxCell id="420" value="14" style="ellipse;whiteSpace=wrap;html=1;aspect=fixed;fontSize=15;strokeColor=#000000;fontColor=#000000;fillColor=#FFFFFF;" vertex="1" parent="1">
                    <mxGeometry x="65" y="862" width="30" height="30" as="geometry"/>
                </mxCell>
                <mxCell id="421" value="11" style="ellipse;whiteSpace=wrap;html=1;aspect=fixed;fontSize=15;strokeColor=#000000;fontColor=#000000;fillColor=#FFFFFF;" vertex="1" parent="1">
                    <mxGeometry x="115" y="862" width="30" height="30" as="geometry"/>
                </mxCell>
                <mxCell id="422" value="10" style="ellipse;whiteSpace=wrap;html=1;aspect=fixed;fontSize=15;strokeColor=#000000;fontColor=#000000;fillColor=#FFFFFF;" vertex="1" parent="1">
                    <mxGeometry x="165" y="862" width="30" height="30" as="geometry"/>
                </mxCell>
                <mxCell id="423" value="15" style="ellipse;whiteSpace=wrap;html=1;aspect=fixed;fontSize=15;strokeColor=#000000;fontColor=#000000;fillColor=#FFFFFF;" vertex="1" parent="1">
                    <mxGeometry x="215" y="862" width="30" height="30" as="geometry"/>
                </mxCell>
                <mxCell id="424" value="8" style="ellipse;whiteSpace=wrap;html=1;aspect=fixed;fontSize=15;strokeColor=#000000;fontColor=#000000;fillColor=#FFFFFF;" vertex="1" parent="1">
                    <mxGeometry x="265" y="862" width="30" height="30" as="geometry"/>
                </mxCell>
                <mxCell id="425" value="7" style="whiteSpace=wrap;html=1;aspect=fixed;strokeColor=#000000;strokeWidth=1;fontSize=14;fillColor=#ffe6cc;" vertex="1" parent="1">
                    <mxGeometry x="410" y="862" width="30" height="30" as="geometry"/>
                </mxCell>
                <mxCell id="426" value="3" style="whiteSpace=wrap;html=1;aspect=fixed;strokeColor=#000000;strokeWidth=1;fontSize=14;fontColor=#000000;fillColor=#FFFFFF;" vertex="1" parent="1">
                    <mxGeometry x="440" y="862" width="30" height="30" as="geometry"/>
                </mxCell>
                <mxCell id="427" value="1" style="whiteSpace=wrap;html=1;aspect=fixed;strokeColor=#000000;strokeWidth=1;fontSize=14;fontColor=#000000;fillColor=#FFFFFF;" vertex="1" parent="1">
                    <mxGeometry x="470" y="862" width="30" height="30" as="geometry"/>
                </mxCell>
                <mxCell id="428" value="5" style="whiteSpace=wrap;html=1;aspect=fixed;strokeColor=#000000;strokeWidth=1;fontSize=14;fontColor=#000000;fillColor=#FFFFFF;" vertex="1" parent="1">
                    <mxGeometry x="500" y="862" width="30" height="30" as="geometry"/>
                </mxCell>
                <mxCell id="429" value="6" style="whiteSpace=wrap;html=1;aspect=fixed;strokeColor=#000000;strokeWidth=1;fontSize=14;fontColor=#000000;fillColor=#FFFFFF;" vertex="1" parent="1">
                    <mxGeometry x="530" y="862" width="30" height="30" as="geometry"/>
                </mxCell>
                <mxCell id="430" value="4" style="whiteSpace=wrap;html=1;aspect=fixed;strokeColor=#000000;strokeWidth=1;fontSize=14;fontColor=#000000;fillColor=#FFFFFF;" vertex="1" parent="1">
                    <mxGeometry x="560" y="862" width="30" height="30" as="geometry"/>
                </mxCell>
                <mxCell id="431" value="2" style="whiteSpace=wrap;html=1;aspect=fixed;strokeColor=#000000;strokeWidth=1;fontSize=14;fontColor=#000000;fillColor=#FFFFFF;" vertex="1" parent="1">
                    <mxGeometry x="590" y="862" width="30" height="30" as="geometry"/>
                </mxCell>
                <mxCell id="432" value="9" style="whiteSpace=wrap;html=1;aspect=fixed;strokeColor=#000000;strokeWidth=1;fontSize=14;fontColor=#000000;fillColor=#FFFFFF;" vertex="1" parent="1">
                    <mxGeometry x="620" y="862" width="30" height="30" as="geometry"/>
                </mxCell>
                <mxCell id="433" value="14" style="whiteSpace=wrap;html=1;aspect=fixed;strokeColor=#000000;strokeWidth=1;fontSize=14;fontColor=#000000;fillColor=#FFFFFF;" vertex="1" parent="1">
                    <mxGeometry x="650" y="862" width="30" height="30" as="geometry"/>
                </mxCell>
                <mxCell id="434" value="11" style="whiteSpace=wrap;html=1;aspect=fixed;strokeColor=#000000;strokeWidth=1;fontSize=14;fontColor=#000000;fillColor=#FFFFFF;" vertex="1" parent="1">
                    <mxGeometry x="680" y="862" width="30" height="30" as="geometry"/>
                </mxCell>
                <mxCell id="435" value="10" style="whiteSpace=wrap;html=1;aspect=fixed;strokeColor=#000000;strokeWidth=1;fontSize=14;fontColor=#000000;fillColor=#FFFFFF;" vertex="1" parent="1">
                    <mxGeometry x="710" y="862" width="30" height="30" as="geometry"/>
                </mxCell>
                <mxCell id="436" value="15" style="whiteSpace=wrap;html=1;aspect=fixed;strokeColor=#000000;strokeWidth=1;fontSize=14;fontColor=#000000;fillColor=#FFFFFF;" vertex="1" parent="1">
                    <mxGeometry x="740" y="862" width="30" height="30" as="geometry"/>
                </mxCell>
                <mxCell id="437" value="8" style="whiteSpace=wrap;html=1;aspect=fixed;strokeColor=#000000;strokeWidth=1;fontSize=14;fontColor=#000000;fillColor=#FFFFFF;" vertex="1" parent="1">
                    <mxGeometry x="770" y="862" width="30" height="30" as="geometry"/>
                </mxCell>
                <mxCell id="439" style="edgeStyle=none;html=1;exitX=0.5;exitY=1;exitDx=0;exitDy=0;dashed=1;fontSize=15;fillColor=#fad9d5;strokeColor=#ae4132;" edge="1" parent="1" source="438">
                    <mxGeometry relative="1" as="geometry">
                        <mxPoint x="320" y="770" as="targetPoint"/>
                    </mxGeometry>
                </mxCell>
                <mxCell id="438" value="smaller child" style="rounded=0;whiteSpace=wrap;html=1;fillColor=#fad9d5;strokeColor=#ae4132;fontSize=15;" vertex="1" parent="1">
                    <mxGeometry x="305" y="700" width="100" height="30" as="geometry"/>
                </mxCell>
                <mxCell id="440" value="" style="endArrow=none;html=1;fontSize=15;strokeColor=#000000;fontColor=#000000;" edge="1" parent="1">
                    <mxGeometry width="50" height="50" relative="1" as="geometry">
                        <mxPoint x="105" y="1075" as="sourcePoint"/>
                        <mxPoint x="155" y="1115" as="targetPoint"/>
                    </mxGeometry>
                </mxCell>
                <mxCell id="441" value="" style="endArrow=none;html=1;fontSize=15;strokeColor=#000000;fontColor=#000000;" edge="1" parent="1">
                    <mxGeometry width="50" height="50" relative="1" as="geometry">
                        <mxPoint x="305" y="1075" as="sourcePoint"/>
                        <mxPoint x="255" y="1115" as="targetPoint"/>
                    </mxGeometry>
                </mxCell>
                <mxCell id="442" value="" style="endArrow=none;html=1;fontSize=15;strokeColor=#000000;fontColor=#000000;" edge="1" parent="1">
                    <mxGeometry width="50" height="50" relative="1" as="geometry">
                        <mxPoint x="305" y="1075" as="sourcePoint"/>
                        <mxPoint x="355" y="1115" as="targetPoint"/>
                    </mxGeometry>
                </mxCell>
                <mxCell id="443" value="" style="endArrow=none;html=1;fontSize=15;strokeColor=#000000;fontColor=#000000;" edge="1" parent="1">
                    <mxGeometry width="50" height="50" relative="1" as="geometry">
                        <mxPoint x="280" y="1165" as="sourcePoint"/>
                        <mxPoint x="255" y="1115" as="targetPoint"/>
                    </mxGeometry>
                </mxCell>
                <mxCell id="444" value="" style="endArrow=none;html=1;fontSize=15;strokeColor=#000000;fontColor=#000000;" edge="1" parent="1">
                    <mxGeometry width="50" height="50" relative="1" as="geometry">
                        <mxPoint x="230" y="1165" as="sourcePoint"/>
                        <mxPoint x="255" y="1115" as="targetPoint"/>
                    </mxGeometry>
                </mxCell>
                <mxCell id="445" value="" style="endArrow=none;html=1;fontSize=15;strokeColor=#000000;fontColor=#000000;" edge="1" parent="1">
                    <mxGeometry width="50" height="50" relative="1" as="geometry">
                        <mxPoint x="180" y="1165" as="sourcePoint"/>
                        <mxPoint x="155" y="1115" as="targetPoint"/>
                    </mxGeometry>
                </mxCell>
                <mxCell id="446" value="" style="endArrow=none;html=1;fontSize=15;strokeColor=#000000;fontColor=#000000;" edge="1" parent="1">
                    <mxGeometry width="50" height="50" relative="1" as="geometry">
                        <mxPoint x="130" y="1165" as="sourcePoint"/>
                        <mxPoint x="155" y="1115" as="targetPoint"/>
                    </mxGeometry>
                </mxCell>
                <mxCell id="447" value="" style="endArrow=none;html=1;fontSize=15;strokeColor=#000000;fontColor=#000000;" edge="1" parent="1">
                    <mxGeometry width="50" height="50" relative="1" as="geometry">
                        <mxPoint x="80" y="1165" as="sourcePoint"/>
                        <mxPoint x="55" y="1115" as="targetPoint"/>
                    </mxGeometry>
                </mxCell>
                <mxCell id="448" value="" style="endArrow=none;html=1;fontSize=15;strokeColor=#000000;fontColor=#000000;" edge="1" parent="1">
                    <mxGeometry width="50" height="50" relative="1" as="geometry">
                        <mxPoint x="30" y="1165" as="sourcePoint"/>
                        <mxPoint x="55" y="1115" as="targetPoint"/>
                    </mxGeometry>
                </mxCell>
                <mxCell id="449" value="" style="endArrow=none;html=1;fontSize=15;strokeColor=#000000;fontColor=#000000;" edge="1" parent="1">
                    <mxGeometry width="50" height="50" relative="1" as="geometry">
                        <mxPoint x="105" y="1075" as="sourcePoint"/>
                        <mxPoint x="55" y="1115" as="targetPoint"/>
                    </mxGeometry>
                </mxCell>
                <mxCell id="450" value="" style="endArrow=none;html=1;fontSize=15;strokeColor=#000000;fontColor=#000000;" edge="1" parent="1">
                    <mxGeometry width="50" height="50" relative="1" as="geometry">
                        <mxPoint x="105" y="1075" as="sourcePoint"/>
                        <mxPoint x="205" y="1045" as="targetPoint"/>
                    </mxGeometry>
                </mxCell>
                <mxCell id="451" value="" style="endArrow=none;html=1;fontSize=15;strokeColor=#000000;fontColor=#000000;startArrow=none;" edge="1" parent="1" source="454">
                    <mxGeometry width="50" height="50" relative="1" as="geometry">
                        <mxPoint x="305" y="1075" as="sourcePoint"/>
                        <mxPoint x="205" y="1045" as="targetPoint"/>
                    </mxGeometry>
                </mxCell>
                <mxCell id="452" value="3" style="ellipse;whiteSpace=wrap;html=1;aspect=fixed;fontSize=15;strokeColor=#000000;fontColor=#000000;fillColor=#FFFFFF;" vertex="1" parent="1">
                    <mxGeometry x="90" y="1060" width="30" height="30" as="geometry"/>
                </mxCell>
                <mxCell id="455" value="5" style="ellipse;whiteSpace=wrap;html=1;aspect=fixed;fontSize=15;strokeColor=#000000;fontColor=#000000;fillColor=#FFFFFF;" vertex="1" parent="1">
                    <mxGeometry x="40" y="1100" width="30" height="30" as="geometry"/>
                </mxCell>
                <mxCell id="456" value="6" style="ellipse;whiteSpace=wrap;html=1;aspect=fixed;fontSize=15;strokeColor=#000000;fontColor=#000000;fillColor=#FFFFFF;" vertex="1" parent="1">
                    <mxGeometry x="140" y="1100" width="30" height="30" as="geometry"/>
                </mxCell>
                <mxCell id="457" value="4" style="ellipse;whiteSpace=wrap;html=1;aspect=fixed;fontSize=15;strokeColor=#000000;fontColor=#000000;fillColor=#FFFFFF;" vertex="1" parent="1">
                    <mxGeometry x="240" y="1100" width="30" height="30" as="geometry"/>
                </mxCell>
                <mxCell id="458" value="2" style="ellipse;whiteSpace=wrap;html=1;aspect=fixed;fontSize=15;strokeColor=#000000;fontColor=#000000;fillColor=#FFFFFF;" vertex="1" parent="1">
                    <mxGeometry x="340" y="1100" width="30" height="30" as="geometry"/>
                </mxCell>
                <mxCell id="459" value="9" style="ellipse;whiteSpace=wrap;html=1;aspect=fixed;fontSize=15;strokeColor=#000000;fontColor=#000000;fillColor=#FFFFFF;" vertex="1" parent="1">
                    <mxGeometry x="15" y="1150" width="30" height="30" as="geometry"/>
                </mxCell>
                <mxCell id="460" value="14" style="ellipse;whiteSpace=wrap;html=1;aspect=fixed;fontSize=15;strokeColor=#000000;fontColor=#000000;fillColor=#FFFFFF;" vertex="1" parent="1">
                    <mxGeometry x="65" y="1150" width="30" height="30" as="geometry"/>
                </mxCell>
                <mxCell id="461" value="11" style="ellipse;whiteSpace=wrap;html=1;aspect=fixed;fontSize=15;strokeColor=#000000;fontColor=#000000;fillColor=#FFFFFF;" vertex="1" parent="1">
                    <mxGeometry x="115" y="1150" width="30" height="30" as="geometry"/>
                </mxCell>
                <mxCell id="462" value="10" style="ellipse;whiteSpace=wrap;html=1;aspect=fixed;fontSize=15;strokeColor=#000000;fontColor=#000000;fillColor=#FFFFFF;" vertex="1" parent="1">
                    <mxGeometry x="165" y="1150" width="30" height="30" as="geometry"/>
                </mxCell>
                <mxCell id="463" value="15" style="ellipse;whiteSpace=wrap;html=1;aspect=fixed;fontSize=15;strokeColor=#000000;fontColor=#000000;fillColor=#FFFFFF;" vertex="1" parent="1">
                    <mxGeometry x="215" y="1150" width="30" height="30" as="geometry"/>
                </mxCell>
                <mxCell id="464" value="8" style="ellipse;whiteSpace=wrap;html=1;aspect=fixed;fontSize=15;strokeColor=#000000;fontColor=#000000;fillColor=#FFFFFF;" vertex="1" parent="1">
                    <mxGeometry x="265" y="1150" width="30" height="30" as="geometry"/>
                </mxCell>
                <mxCell id="465" value="7" style="whiteSpace=wrap;html=1;aspect=fixed;strokeColor=#000000;strokeWidth=1;fontSize=14;fillColor=#ffe6cc;" vertex="1" parent="1">
                    <mxGeometry x="470" y="1150" width="30" height="30" as="geometry"/>
                </mxCell>
                <mxCell id="466" value="3" style="whiteSpace=wrap;html=1;aspect=fixed;strokeColor=#000000;strokeWidth=1;fontSize=14;fontColor=#000000;fillColor=#FFFFFF;" vertex="1" parent="1">
                    <mxGeometry x="440" y="1150" width="30" height="30" as="geometry"/>
                </mxCell>
                <mxCell id="467" value="1" style="whiteSpace=wrap;html=1;aspect=fixed;strokeColor=#000000;strokeWidth=1;fontSize=14;fontColor=#000000;fillColor=#FFFFFF;" vertex="1" parent="1">
                    <mxGeometry x="410" y="1150" width="30" height="30" as="geometry"/>
                </mxCell>
                <mxCell id="468" value="5" style="whiteSpace=wrap;html=1;aspect=fixed;strokeColor=#000000;strokeWidth=1;fontSize=14;fontColor=#000000;fillColor=#FFFFFF;" vertex="1" parent="1">
                    <mxGeometry x="500" y="1150" width="30" height="30" as="geometry"/>
                </mxCell>
                <mxCell id="469" value="6" style="whiteSpace=wrap;html=1;aspect=fixed;strokeColor=#000000;strokeWidth=1;fontSize=14;fontColor=#000000;fillColor=#FFFFFF;" vertex="1" parent="1">
                    <mxGeometry x="530" y="1150" width="30" height="30" as="geometry"/>
                </mxCell>
                <mxCell id="470" value="4" style="whiteSpace=wrap;html=1;aspect=fixed;strokeColor=#000000;strokeWidth=1;fontSize=14;fontColor=#000000;fillColor=#FFFFFF;" vertex="1" parent="1">
                    <mxGeometry x="560" y="1150" width="30" height="30" as="geometry"/>
                </mxCell>
                <mxCell id="471" value="2" style="whiteSpace=wrap;html=1;aspect=fixed;strokeColor=#000000;strokeWidth=1;fontSize=14;fontColor=#000000;fillColor=#FFFFFF;" vertex="1" parent="1">
                    <mxGeometry x="590" y="1150" width="30" height="30" as="geometry"/>
                </mxCell>
                <mxCell id="472" value="9" style="whiteSpace=wrap;html=1;aspect=fixed;strokeColor=#000000;strokeWidth=1;fontSize=14;fontColor=#000000;fillColor=#FFFFFF;" vertex="1" parent="1">
                    <mxGeometry x="620" y="1150" width="30" height="30" as="geometry"/>
                </mxCell>
                <mxCell id="473" value="14" style="whiteSpace=wrap;html=1;aspect=fixed;strokeColor=#000000;strokeWidth=1;fontSize=14;fontColor=#000000;fillColor=#FFFFFF;" vertex="1" parent="1">
                    <mxGeometry x="650" y="1150" width="30" height="30" as="geometry"/>
                </mxCell>
                <mxCell id="474" value="11" style="whiteSpace=wrap;html=1;aspect=fixed;strokeColor=#000000;strokeWidth=1;fontSize=14;fontColor=#000000;fillColor=#FFFFFF;" vertex="1" parent="1">
                    <mxGeometry x="680" y="1150" width="30" height="30" as="geometry"/>
                </mxCell>
                <mxCell id="475" value="10" style="whiteSpace=wrap;html=1;aspect=fixed;strokeColor=#000000;strokeWidth=1;fontSize=14;fontColor=#000000;fillColor=#FFFFFF;" vertex="1" parent="1">
                    <mxGeometry x="710" y="1150" width="30" height="30" as="geometry"/>
                </mxCell>
                <mxCell id="476" value="15" style="whiteSpace=wrap;html=1;aspect=fixed;strokeColor=#000000;strokeWidth=1;fontSize=14;fontColor=#000000;fillColor=#FFFFFF;" vertex="1" parent="1">
                    <mxGeometry x="740" y="1150" width="30" height="30" as="geometry"/>
                </mxCell>
                <mxCell id="477" value="8" style="whiteSpace=wrap;html=1;aspect=fixed;strokeColor=#000000;strokeWidth=1;fontSize=14;fontColor=#000000;fillColor=#FFFFFF;" vertex="1" parent="1">
                    <mxGeometry x="770" y="1150" width="30" height="30" as="geometry"/>
                </mxCell>
                <mxCell id="480" value="" style="endArrow=none;html=1;fontSize=15;strokeColor=#000000;fontColor=#000000;" edge="1" parent="1" target="453">
                    <mxGeometry width="50" height="50" relative="1" as="geometry">
                        <mxPoint x="305" y="1075" as="sourcePoint"/>
                        <mxPoint x="205" y="1045" as="targetPoint"/>
                    </mxGeometry>
                </mxCell>
                <mxCell id="453" value="7" style="ellipse;whiteSpace=wrap;html=1;aspect=fixed;fontSize=15;strokeColor=#000000;fillColor=#ffe6cc;" vertex="1" parent="1">
                    <mxGeometry x="290" y="1060" width="30" height="30" as="geometry"/>
                </mxCell>
                <mxCell id="481" value="" style="endArrow=none;html=1;fontSize=15;strokeColor=#000000;fontColor=#000000;startArrow=none;" edge="1" parent="1" source="453" target="454">
                    <mxGeometry width="50" height="50" relative="1" as="geometry">
                        <mxPoint x="290.60646527524773" y="1070.7778964807394" as="sourcePoint"/>
                        <mxPoint x="205" y="1045" as="targetPoint"/>
                    </mxGeometry>
                </mxCell>
                <mxCell id="454" value="1" style="ellipse;whiteSpace=wrap;html=1;aspect=fixed;fontSize=15;strokeColor=#000000;fontColor=#000000;fillColor=#FFFFFF;" vertex="1" parent="1">
                    <mxGeometry x="190" y="1030" width="30" height="30" as="geometry"/>
                </mxCell>
                <mxCell id="483" style="edgeStyle=none;html=1;exitX=0.5;exitY=1;exitDx=0;exitDy=0;dashed=1;fontSize=15;fillColor=#fad9d5;strokeColor=#ae4132;" edge="1" source="484" parent="1">
                    <mxGeometry relative="1" as="geometry">
                        <mxPoint x="380" y="1100" as="targetPoint"/>
                    </mxGeometry>
                </mxCell>
                <mxCell id="484" value="smaller child" style="rounded=0;whiteSpace=wrap;html=1;fillColor=#fad9d5;strokeColor=#ae4132;fontSize=15;" vertex="1" parent="1">
                    <mxGeometry x="420" y="1030" width="100" height="30" as="geometry"/>
                </mxCell>
                <mxCell id="485" value="" style="endArrow=none;html=1;fontSize=15;strokeColor=#000000;fontColor=#000000;" edge="1" parent="1">
                    <mxGeometry width="50" height="50" relative="1" as="geometry">
                        <mxPoint x="105" y="1375" as="sourcePoint"/>
                        <mxPoint x="155" y="1415" as="targetPoint"/>
                    </mxGeometry>
                </mxCell>
                <mxCell id="486" value="" style="endArrow=none;html=1;fontSize=15;strokeColor=#000000;fontColor=#000000;" edge="1" parent="1">
                    <mxGeometry width="50" height="50" relative="1" as="geometry">
                        <mxPoint x="305" y="1375" as="sourcePoint"/>
                        <mxPoint x="255" y="1415" as="targetPoint"/>
                    </mxGeometry>
                </mxCell>
                <mxCell id="487" value="" style="endArrow=none;html=1;fontSize=15;strokeColor=#000000;fontColor=#000000;" edge="1" parent="1">
                    <mxGeometry width="50" height="50" relative="1" as="geometry">
                        <mxPoint x="305" y="1375" as="sourcePoint"/>
                        <mxPoint x="355" y="1415" as="targetPoint"/>
                    </mxGeometry>
                </mxCell>
                <mxCell id="488" value="" style="endArrow=none;html=1;fontSize=15;strokeColor=#000000;fontColor=#000000;" edge="1" parent="1">
                    <mxGeometry width="50" height="50" relative="1" as="geometry">
                        <mxPoint x="280" y="1465" as="sourcePoint"/>
                        <mxPoint x="255" y="1415" as="targetPoint"/>
                    </mxGeometry>
                </mxCell>
                <mxCell id="489" value="" style="endArrow=none;html=1;fontSize=15;strokeColor=#000000;fontColor=#000000;" edge="1" parent="1">
                    <mxGeometry width="50" height="50" relative="1" as="geometry">
                        <mxPoint x="230" y="1465" as="sourcePoint"/>
                        <mxPoint x="255" y="1415" as="targetPoint"/>
                    </mxGeometry>
                </mxCell>
                <mxCell id="490" value="" style="endArrow=none;html=1;fontSize=15;strokeColor=#000000;fontColor=#000000;" edge="1" parent="1">
                    <mxGeometry width="50" height="50" relative="1" as="geometry">
                        <mxPoint x="180" y="1465" as="sourcePoint"/>
                        <mxPoint x="155" y="1415" as="targetPoint"/>
                    </mxGeometry>
                </mxCell>
                <mxCell id="491" value="" style="endArrow=none;html=1;fontSize=15;strokeColor=#000000;fontColor=#000000;" edge="1" parent="1">
                    <mxGeometry width="50" height="50" relative="1" as="geometry">
                        <mxPoint x="130" y="1465" as="sourcePoint"/>
                        <mxPoint x="155" y="1415" as="targetPoint"/>
                    </mxGeometry>
                </mxCell>
                <mxCell id="492" value="" style="endArrow=none;html=1;fontSize=15;strokeColor=#000000;fontColor=#000000;" edge="1" parent="1">
                    <mxGeometry width="50" height="50" relative="1" as="geometry">
                        <mxPoint x="80" y="1465" as="sourcePoint"/>
                        <mxPoint x="55" y="1415" as="targetPoint"/>
                    </mxGeometry>
                </mxCell>
                <mxCell id="493" value="" style="endArrow=none;html=1;fontSize=15;strokeColor=#000000;fontColor=#000000;" edge="1" parent="1">
                    <mxGeometry width="50" height="50" relative="1" as="geometry">
                        <mxPoint x="30" y="1465" as="sourcePoint"/>
                        <mxPoint x="55" y="1415" as="targetPoint"/>
                    </mxGeometry>
                </mxCell>
                <mxCell id="494" value="" style="endArrow=none;html=1;fontSize=15;strokeColor=#000000;fontColor=#000000;" edge="1" parent="1">
                    <mxGeometry width="50" height="50" relative="1" as="geometry">
                        <mxPoint x="105" y="1375" as="sourcePoint"/>
                        <mxPoint x="55" y="1415" as="targetPoint"/>
                    </mxGeometry>
                </mxCell>
                <mxCell id="495" value="" style="endArrow=none;html=1;fontSize=15;strokeColor=#000000;fontColor=#000000;" edge="1" parent="1">
                    <mxGeometry width="50" height="50" relative="1" as="geometry">
                        <mxPoint x="105" y="1375" as="sourcePoint"/>
                        <mxPoint x="205" y="1345" as="targetPoint"/>
                    </mxGeometry>
                </mxCell>
                <mxCell id="496" value="" style="endArrow=none;html=1;fontSize=15;strokeColor=#000000;fontColor=#000000;startArrow=none;" edge="1" source="524" parent="1">
                    <mxGeometry width="50" height="50" relative="1" as="geometry">
                        <mxPoint x="305" y="1375" as="sourcePoint"/>
                        <mxPoint x="205" y="1345" as="targetPoint"/>
                    </mxGeometry>
                </mxCell>
                <mxCell id="497" value="3" style="ellipse;whiteSpace=wrap;html=1;aspect=fixed;fontSize=15;strokeColor=#000000;fontColor=#000000;fillColor=#FFFFFF;" vertex="1" parent="1">
                    <mxGeometry x="90" y="1360" width="30" height="30" as="geometry"/>
                </mxCell>
                <mxCell id="498" value="5" style="ellipse;whiteSpace=wrap;html=1;aspect=fixed;fontSize=15;strokeColor=#000000;fontColor=#000000;fillColor=#FFFFFF;" vertex="1" parent="1">
                    <mxGeometry x="40" y="1400" width="30" height="30" as="geometry"/>
                </mxCell>
                <mxCell id="499" value="6" style="ellipse;whiteSpace=wrap;html=1;aspect=fixed;fontSize=15;strokeColor=#000000;fontColor=#000000;fillColor=#FFFFFF;" vertex="1" parent="1">
                    <mxGeometry x="140" y="1400" width="30" height="30" as="geometry"/>
                </mxCell>
                <mxCell id="500" value="4" style="ellipse;whiteSpace=wrap;html=1;aspect=fixed;fontSize=15;strokeColor=#000000;fontColor=#000000;fillColor=#FFFFFF;" vertex="1" parent="1">
                    <mxGeometry x="240" y="1400" width="30" height="30" as="geometry"/>
                </mxCell>
                <mxCell id="501" value="7" style="ellipse;whiteSpace=wrap;html=1;aspect=fixed;fontSize=15;strokeColor=#000000;fillColor=#ffe6cc;" vertex="1" parent="1">
                    <mxGeometry x="340" y="1400" width="30" height="30" as="geometry"/>
                </mxCell>
                <mxCell id="502" value="9" style="ellipse;whiteSpace=wrap;html=1;aspect=fixed;fontSize=15;strokeColor=#000000;fontColor=#000000;fillColor=#FFFFFF;" vertex="1" parent="1">
                    <mxGeometry x="15" y="1450" width="30" height="30" as="geometry"/>
                </mxCell>
                <mxCell id="503" value="14" style="ellipse;whiteSpace=wrap;html=1;aspect=fixed;fontSize=15;strokeColor=#000000;fontColor=#000000;fillColor=#FFFFFF;" vertex="1" parent="1">
                    <mxGeometry x="65" y="1450" width="30" height="30" as="geometry"/>
                </mxCell>
                <mxCell id="504" value="11" style="ellipse;whiteSpace=wrap;html=1;aspect=fixed;fontSize=15;strokeColor=#000000;fontColor=#000000;fillColor=#FFFFFF;" vertex="1" parent="1">
                    <mxGeometry x="115" y="1450" width="30" height="30" as="geometry"/>
                </mxCell>
                <mxCell id="505" value="10" style="ellipse;whiteSpace=wrap;html=1;aspect=fixed;fontSize=15;strokeColor=#000000;fontColor=#000000;fillColor=#FFFFFF;" vertex="1" parent="1">
                    <mxGeometry x="165" y="1450" width="30" height="30" as="geometry"/>
                </mxCell>
                <mxCell id="506" value="15" style="ellipse;whiteSpace=wrap;html=1;aspect=fixed;fontSize=15;strokeColor=#000000;fontColor=#000000;fillColor=#FFFFFF;" vertex="1" parent="1">
                    <mxGeometry x="215" y="1450" width="30" height="30" as="geometry"/>
                </mxCell>
                <mxCell id="507" value="8" style="ellipse;whiteSpace=wrap;html=1;aspect=fixed;fontSize=15;strokeColor=#000000;fontColor=#000000;fillColor=#FFFFFF;" vertex="1" parent="1">
                    <mxGeometry x="265" y="1450" width="30" height="30" as="geometry"/>
                </mxCell>
                <mxCell id="508" value="7" style="whiteSpace=wrap;html=1;aspect=fixed;strokeColor=#000000;strokeWidth=1;fontSize=14;fillColor=#ffe6cc;" vertex="1" parent="1">
                    <mxGeometry x="590" y="1450" width="30" height="30" as="geometry"/>
                </mxCell>
                <mxCell id="509" value="3" style="whiteSpace=wrap;html=1;aspect=fixed;strokeColor=#000000;strokeWidth=1;fontSize=14;fontColor=#000000;fillColor=#FFFFFF;" vertex="1" parent="1">
                    <mxGeometry x="440" y="1450" width="30" height="30" as="geometry"/>
                </mxCell>
                <mxCell id="510" value="1" style="whiteSpace=wrap;html=1;aspect=fixed;strokeColor=#000000;strokeWidth=1;fontSize=14;fontColor=#000000;fillColor=#FFFFFF;" vertex="1" parent="1">
                    <mxGeometry x="410" y="1450" width="30" height="30" as="geometry"/>
                </mxCell>
                <mxCell id="511" value="5" style="whiteSpace=wrap;html=1;aspect=fixed;strokeColor=#000000;strokeWidth=1;fontSize=14;fontColor=#000000;fillColor=#FFFFFF;" vertex="1" parent="1">
                    <mxGeometry x="500" y="1450" width="30" height="30" as="geometry"/>
                </mxCell>
                <mxCell id="512" value="6" style="whiteSpace=wrap;html=1;aspect=fixed;strokeColor=#000000;strokeWidth=1;fontSize=14;fontColor=#000000;fillColor=#FFFFFF;" vertex="1" parent="1">
                    <mxGeometry x="530" y="1450" width="30" height="30" as="geometry"/>
                </mxCell>
                <mxCell id="513" value="4" style="whiteSpace=wrap;html=1;aspect=fixed;strokeColor=#000000;strokeWidth=1;fontSize=14;fontColor=#000000;fillColor=#FFFFFF;" vertex="1" parent="1">
                    <mxGeometry x="560" y="1450" width="30" height="30" as="geometry"/>
                </mxCell>
                <mxCell id="514" value="2" style="whiteSpace=wrap;html=1;aspect=fixed;strokeColor=#000000;strokeWidth=1;fontSize=14;fontColor=#000000;fillColor=#FFFFFF;" vertex="1" parent="1">
                    <mxGeometry x="470" y="1450" width="30" height="30" as="geometry"/>
                </mxCell>
                <mxCell id="515" value="9" style="whiteSpace=wrap;html=1;aspect=fixed;strokeColor=#000000;strokeWidth=1;fontSize=14;fontColor=#000000;fillColor=#FFFFFF;" vertex="1" parent="1">
                    <mxGeometry x="620" y="1450" width="30" height="30" as="geometry"/>
                </mxCell>
                <mxCell id="516" value="14" style="whiteSpace=wrap;html=1;aspect=fixed;strokeColor=#000000;strokeWidth=1;fontSize=14;fontColor=#000000;fillColor=#FFFFFF;" vertex="1" parent="1">
                    <mxGeometry x="650" y="1450" width="30" height="30" as="geometry"/>
                </mxCell>
                <mxCell id="517" value="11" style="whiteSpace=wrap;html=1;aspect=fixed;strokeColor=#000000;strokeWidth=1;fontSize=14;fontColor=#000000;fillColor=#FFFFFF;" vertex="1" parent="1">
                    <mxGeometry x="680" y="1450" width="30" height="30" as="geometry"/>
                </mxCell>
                <mxCell id="518" value="10" style="whiteSpace=wrap;html=1;aspect=fixed;strokeColor=#000000;strokeWidth=1;fontSize=14;fontColor=#000000;fillColor=#FFFFFF;" vertex="1" parent="1">
                    <mxGeometry x="710" y="1450" width="30" height="30" as="geometry"/>
                </mxCell>
                <mxCell id="519" value="15" style="whiteSpace=wrap;html=1;aspect=fixed;strokeColor=#000000;strokeWidth=1;fontSize=14;fontColor=#000000;fillColor=#FFFFFF;" vertex="1" parent="1">
                    <mxGeometry x="740" y="1450" width="30" height="30" as="geometry"/>
                </mxCell>
                <mxCell id="520" value="8" style="whiteSpace=wrap;html=1;aspect=fixed;strokeColor=#000000;strokeWidth=1;fontSize=14;fontColor=#000000;fillColor=#FFFFFF;" vertex="1" parent="1">
                    <mxGeometry x="770" y="1450" width="30" height="30" as="geometry"/>
                </mxCell>
                <mxCell id="521" value="" style="endArrow=none;html=1;fontSize=15;strokeColor=#000000;fontColor=#000000;" edge="1" target="522" parent="1">
                    <mxGeometry width="50" height="50" relative="1" as="geometry">
                        <mxPoint x="305" y="1375" as="sourcePoint"/>
                        <mxPoint x="205" y="1345" as="targetPoint"/>
                    </mxGeometry>
                </mxCell>
                <mxCell id="522" value="2" style="ellipse;whiteSpace=wrap;html=1;aspect=fixed;fontSize=15;" vertex="1" parent="1">
                    <mxGeometry x="290" y="1360" width="30" height="30" as="geometry"/>
                </mxCell>
                <mxCell id="523" value="" style="endArrow=none;html=1;fontSize=15;strokeColor=#000000;fontColor=#000000;startArrow=none;" edge="1" source="522" target="524" parent="1">
                    <mxGeometry width="50" height="50" relative="1" as="geometry">
                        <mxPoint x="290.60646527524773" y="1370.7778964807394" as="sourcePoint"/>
                        <mxPoint x="205" y="1345" as="targetPoint"/>
                    </mxGeometry>
                </mxCell>
                <mxCell id="524" value="1" style="ellipse;whiteSpace=wrap;html=1;aspect=fixed;fontSize=15;strokeColor=#000000;fontColor=#000000;fillColor=#FFFFFF;" vertex="1" parent="1">
                    <mxGeometry x="190" y="1330" width="30" height="30" as="geometry"/>
                </mxCell>
            </root>
        </mxGraphModel>
    </diagram>
</mxfile>